<svg xmlns="http://www.w3.org/2000/svg" viewBox="0 0 180 40" width="140" height="32" aria-label="Manufacturing Co Logo">
  <rect width="180" height="40" fill="none"/>
  <g fill="#0F172A">
    <path d="M14 26V12h3l3.8 5.2L24.8 12h3V26h-3V18.4l-3 4.1-3-4.1V26h-3z"/>
    <path d="M38 16.2c2.2 0 3.6 1 4.3 2V16h3v10h-3v-1.8c-.8 1.2-2.2 2-4.3 2-3.2 0-5.5-2.4-5.5-5.5s2.3-5.5 5.5-5.5zm.7 8.4c1.8 0 3.3-1.3 3.3-3s-1.5-3-3.3-3-3.3 1.3-3.3 3 1.5 3 3.3 3z"/>
    <path d="M52.2 12h3v14h-3V12z"/>
    <path d="M62.7 16.2c3.3 0 5.6 2.4 5.6 5.5s-2.3 5.5-5.6 5.5-5.6-2.4-5.6-5.5 2.3-5.5 5.6-5.5zm0 8.4c1.7 0 3.1-1.4 3.1-2.9 0-1.6-1.3-3-3.1-3s-3.1 1.4-3.1 3c0 1.5 1.4 2.9 3.1 2.9z"/>
    <path d="M73.8 16h3v2.1c.7-1.4 2.2-2.2 4-2.2 2.9 0 4.7 1.9 4.7 5v7h-3v-6.2c0-1.9-1-3-2.7-3s-3 1.2-3 3.3V28h-3V16z"/>
  </g>
</svg> 