<svg xmlns="http://www.w3.org/2000/svg" viewBox="0 0 180 40" width="140" height="32" aria-label="RetailChain Logo">
  <rect width="180" height="40" fill="none"/>
  <g fill="#0F172A">
    <circle cx="22" cy="20" r="8" fill="#0F172A"/>
    <rect x="36" y="12" width="3" height="16"/>
    <path d="M44 16h3v2.2c.6-1.3 2-2.3 3.9-2.3 2.9 0 4.8 2 4.8 5.1V28h-3v-6.3c0-1.9-1.1-3.1-2.8-3.1-1.8 0-3 1.3-3 3.4V28h-3V16z"/>
    <path d="M64.5 16.2c3.3 0 5.6 2.4 5.6 5.5s-2.3 5.5-5.6 5.5-5.6-2.4-5.6-5.5 2.3-5.5 5.6-5.5zm0 8.4c1.6 0 3.1-1.3 3.1-2.9s-1.5-2.9-3.1-2.9-3.1 1.3-3.1 2.9 1.5 2.9 3.1 2.9z"/>
    <path d="M75.8 12h3v16h-3V12z"/>
  </g>
</svg> 