<svg xmlns="http://www.w3.org/2000/svg" viewBox="0 0 180 40" width="140" height="32" aria-label="TechVision Logo">
  <rect width="180" height="40" fill="none"/>
  <g fill="#0F172A">
    <path d="M12 12h8v3h-2.5v13h-3V15H12v-3z"/>
    <path d="M28 12h3v6.5c.9-1.3 2.3-2.1 4.1-2.1 3 0 5.2 2.2 5.2 6v5.6h-3V23c0-2-1.2-3.2-3-3.2s-3.3 1.3-3.3 3.7v5h-3V12z"/>
    <path d="M51.7 16.3c4 0 6.8 2.9 6.8 6.8 0 3.9-2.8 6.8-6.8 6.8s-6.8-2.9-6.8-6.8c0-3.9 2.8-6.8 6.8-6.8zm0 10.5c2.2 0 3.8-1.6 3.8-3.7s-1.6-3.7-3.8-3.7-3.8 1.6-3.8 3.7 1.6 3.7 3.8 3.7z"/>
    <path d="M66.7 12h3v17h-3V12z"/>
    <path d="M76.8 16.3c1.9 0 3.5.9 4.3 2.1V12h3v17h-3v-1.9c-.8 1.3-2.4 2.1-4.3 2.1-3.6 0-6.2-2.8-6.2-6.7 0-3.8 2.6-6.7 6.2-6.7zm.9 10.5c2.1 0 3.7-1.6 3.7-3.8s-1.6-3.8-3.7-3.8-3.7 1.7-3.7 3.8 1.6 3.8 3.7 3.8z"/>
    <path d="M100.5 16.3c3.7 0 6.4 2.9 6.4 6.6v.6h-10c.2 2 1.8 3.4 3.9 3.4 1.5 0 2.9-.7 3.5-1.8l2.3 1.6c-1.1 1.9-3.4 3.2-5.9 3.2-4.1 0-6.9-2.8-6.9-6.8 0-3.9 2.8-6.8 6.7-6.8zm-3.3 5.4h6.7c-.3-1.9-1.7-3.1-3.4-3.1-1.8 0-3.2 1.2-3.3 3.1z"/>
    <path d="M115.7 12h3v17h-3V12z"/>
    <path d="M124.7 12h3v3.1h-3V12zm0 4.3h3v12.7h-3V16.3z"/>
    <path d="M141.5 16.3c3.8 0 6.6 3 6.6 6.7s-2.8 6.7-6.6 6.7c-1.8 0-3.4-.7-4.4-2v1.8h-3V12h3v7c1-1.3 2.6-2 4.4-2zm-.6 10.5c2.2 0 3.8-1.6 3.8-3.8s-1.6-3.8-3.8-3.8-3.8 1.7-3.8 3.8 1.6 3.8 3.8 3.8z"/>
  </g>
</svg> 