<svg xmlns="http://www.w3.org/2000/svg" viewBox="0 0 180 40" width="140" height="32" aria-label="Service Group Logo">
  <rect width="180" height="40" fill="none"/>
  <g fill="#0F172A">
    <circle cx="16" cy="20" r="6" fill="#0F172A"/>
    <path d="M30 16h9v3h-6v2.2h5.4V24H33v4h-3V16z"/>
    <path d="M45 16h3v2c.8-1.3 2.3-2.2 4.2-2.2 3 0 5 2.1 5 5.3V28h-3v-6.1c0-2-1.2-3.1-3-3.1s-3.2 1.3-3.2 3.5V28h-3V16z"/>
    <path d="M64.5 16.2c3.2 0 5.6 2.4 5.6 5.5s-2.4 5.5-5.6 5.5-5.6-2.4-5.6-5.5 2.4-5.5 5.6-5.5zm0 8.4c1.7 0 3.1-1.4 3.1-2.9 0-1.6-1.4-3-3.1-3s-3.1 1.4-3.1 3c0 1.5 1.4 2.9 3.1 2.9z"/>
  </g>
</svg> 